<svg width="327" height="40" viewBox="0 0 327 40" fill="none" xmlns="http://www.w3.org/2000/svg">
<rect x="144" y="0.5" width="39" height="39" rx="19.5" stroke="#D6D6D6"/>
<path d="M173.306 18.0415H172.5V18H163.5V22H169.152C168.327 24.3285 166.111 26 163.5 26C160.187 26 157.5 23.3135 157.5 20C157.5 16.6865 160.187 14 163.5 14C165.03 14 166.421 14.577 167.481 15.5195L170.309 12.691C168.523 11.0265 166.134 10 163.5 10C157.977 10 153.5 14.4775 153.5 20C153.5 25.5225 157.977 30 163.5 30C169.023 30 173.5 25.5225 173.5 20C173.5 19.3295 173.431 18.675 173.306 18.0415Z" fill="#FFC107"/>
<path d="M154.653 15.3455L157.939 17.755C158.828 15.554 160.981 14 163.5 14C165.03 14 166.421 14.577 167.481 15.5195L170.309 12.691C168.523 11.0265 166.134 10 163.5 10C159.659 10 156.328 12.1685 154.653 15.3455Z" fill="#FF3D00"/>
<path d="M163.5 30C166.083 30 168.43 29.0115 170.204 27.404L167.109 24.785C166.072 25.5742 164.804 26.001 163.5 26C160.899 26 158.69 24.3415 157.858 22.027L154.597 24.5395C156.252 27.778 159.613 30 163.5 30Z" fill="#4CAF50"/>
<path d="M173.306 18.0415H172.5V18H163.5V22H169.152C168.757 23.1082 168.047 24.0766 167.108 24.7855L167.109 24.7845L170.205 27.4035C169.986 27.6025 173.5 25 173.5 20C173.5 19.3295 173.431 18.675 173.306 18.0415Z" fill="#1976D2"/>
</svg>
